<mxfile host="app.diagrams.net" modified="2024-03-25T08:43:26.913Z" agent="Mozilla/5.0 (Windows NT 10.0; Win64; x64) AppleWebKit/537.36 (KHTML, like Gecko) Chrome/122.0.0.0 Safari/537.36 Edg/122.0.0.0" version="23.1.6" etag="RE619E0ALiSGYSbP4026" type="github">
  <diagram name="Page-1" id="REb1YuqyBFkDufYSk3A4">
    <mxGraphModel>
      <root>
        <mxCell id="0" />
        <mxCell id="1" parent="0" />
      </root>
    </mxGraphModel>
  </diagram>
</mxfile>
